<svg id="iconcamera" class="icon" xmlns="http://www.w3.org/2000/svg" viewBox="0 0 120 120"><path d="M85.38,40.72a10.8,10.8,0,0,1-1.28,10.1,4.24,4.24,0,0,1,2.34,3.78V75.47a4.26,4.26,0,0,1-4.26,4.26H37.82a4.26,4.26,0,0,1-4.26-4.26V54.6a4.26,4.26,0,0,1,4.26-4.26h7.86a5,5,0,0,0,5-5V38.86a1.26,1.26,0,0,1,1.25-1.25H66.75a10.9,10.9,0,0,1,8.42-4,11.11,11.11,0,0,1,3.07.44,11.27,11.27,0,0,0-10.17-6.47H51.93A11.27,11.27,0,0,0,40.68,38.86v1.48H37.82A14.27,14.27,0,0,0,23.56,54.6V75.47A14.27,14.27,0,0,0,37.82,89.73H82.18A14.27,14.27,0,0,0,96.44,75.47V54.6A14.26,14.26,0,0,0,85.38,40.72Z" style="fill:#96a6ab"/><circle cx="75.17" cy="44.56" r="5.92" style="fill:#96a6ab"/><circle cx="61.5" cy="62.36" r="9.21" style="fill:#96a6ab"/></svg>