<svg id="icondelete" class="icon" xmlns="http://www.w3.org/2000/svg" viewBox="0 0 120 120"><path d="M88.76,41.37a6.53,6.53,0,0,0-4.91-2.24H36.15a6.5,6.5,0,0,0-6.42,7.49L37.78,99a6.51,6.51,0,0,0,6.43,5.51H76.35A6.49,6.49,0,0,0,82.78,99l7.5-52.4A6.52,6.52,0,0,0,88.76,41.37ZM52.94,91.46l-.44,0a3,3,0,0,1-3-2.56L44.4,54a3,3,0,0,1,5.93-.87l5.14,34.9A3,3,0,0,1,52.94,91.46ZM76.72,54l-5.14,34.9a3,3,0,0,1-3,2.56l-.44,0a3,3,0,0,1-2.53-3.4l5.13-34.9a3,3,0,0,1,5.94.87Z" style="fill:#2b3547"/><path d="M74.84,27.15a11.45,11.45,0,0,1,2-6.5H67.45a8.11,8.11,0,0,0,0-.86,7.5,7.5,0,1,0-15,0,8.11,8.11,0,0,0,0,.86H34.69a6.5,6.5,0,1,0,0,13H76.86A11.45,11.45,0,0,1,74.84,27.15Z" style="fill:#2b3547"/><circle cx="86.34" cy="27.15" r="6.5" style="fill:#2b3547"/></svg>