<svg id="iconfilter" class="icon" xmlns="http://www.w3.org/2000/svg" viewBox="0 0 120 120"><path d="M93.49,56H84.66a9,9,0,0,0-16.11,0H27.41a4,4,0,1,0,0,8H68.55a9,9,0,0,0,16.11,0h8.83a4,4,0,1,0,0-8Z" style="fill:#2b3547"/><path d="M93.49,79.58H60.31a9,9,0,0,0-16.11,0H27.41a4,4,0,1,0,0,8H44.2a9,9,0,0,0,16.11,0H93.49a4,4,0,0,0,0-8Z" style="fill:#2b3547"/><path d="M93.49,32.42H58.73a15.36,15.36,0,0,1,0,8H93.49a4,4,0,0,0,0-8Z" style="fill:#2b3547"/><path d="M43.26,27.42a9,9,0,0,0-8.06,5H27.41a4,4,0,1,0,0,8H35.2a9,9,0,1,0,8.06-13Z" style="fill:#2b3547"/></svg>