<svg xmlns="http://www.w3.org/2000/svg" viewBox="0 0 120 120"><g id="Layer_3" data-name="Layer 3"><path d="M103.91,57.17A78.5,78.5,0,0,0,83.7,43.37L94.93,32.14a5,5,0,1,0-7.07-7.07L73.39,39.54A50.76,50.76,0,0,0,60,37.66c-24.07,0-43.11,18.71-43.91,19.51a4,4,0,0,0,0,5.66A78.5,78.5,0,0,0,36.3,76.63L25.07,87.86a5,5,0,0,0,7.07,7.07L46.61,80.46A50.76,50.76,0,0,0,60,82.33c24.07,0,43.11-18.7,43.91-19.5a4,4,0,0,0,0-5.66ZM50.14,58.42A10,10,0,0,1,60,50.11a10.83,10.83,0,0,1,1.7.14c.27,0,.54.12.81.18L50.33,62.61A9.69,9.69,0,0,1,50.14,58.42ZM25,60A69.51,69.51,0,0,1,46.6,47.9a18,18,0,0,0-2.41,20.84l-1.8,1.8A72.46,72.46,0,0,1,25,60Zm44.88,1.8A10,10,0,0,1,60,70.11,10.73,10.73,0,0,1,58.3,70c-.33-.06-.65-.14-1-.23L63,64.07a4.93,4.93,0,0,0,1-1l5.59-5.59A9.92,9.92,0,0,1,69.85,61.8ZM73.4,72.1a18,18,0,0,0,2.41-20.84l1.8-1.8A72.46,72.46,0,0,1,95,60,69.51,69.51,0,0,1,73.4,72.1Z" style="fill:#2b3547"/></g></svg>