<svg id="iconlist" class="icon" xmlns="http://www.w3.org/2000/svg" viewBox="0 0 120 120"><circle cx="32" cy="36.42" r="7.5" style="fill:#2b3547"/><path d="M88.89,42.92H53.14a6.5,6.5,0,0,1,0-13H88.89a6.5,6.5,0,0,1,0,13Z" style="fill:#2b3547"/><circle cx="32" cy="60" r="7.5" style="fill:#2b3547"/><path d="M88.89,66.5H53.14a6.5,6.5,0,0,1,0-13H88.89a6.5,6.5,0,0,1,0,13Z" style="fill:#2b3547"/><circle cx="32" cy="83.58" r="7.5" style="fill:#2b3547"/><path d="M88.89,90.08H53.14a6.5,6.5,0,0,1,0-13H88.89a6.5,6.5,0,0,1,0,13Z" style="fill:#2b3547"/></svg>