<svg id="iconmap" class="icon" xmlns="http://www.w3.org/2000/svg" viewBox="0 0 120 120" ><path d="M60,76.23a5,5,0,0,1-4-2C53.15,70.48,38.8,51.13,38.8,41a21.2,21.2,0,1,1,42.4,0c0,4.73-2.9,11.64-8.87,21.13C68.21,68.69,64.15,74,64,74.26A5,5,0,0,1,60,76.23Zm0-46.42A11.21,11.21,0,0,0,48.8,41c0,3.66,5.28,13.12,11.2,21.7,5.92-8.58,11.2-18,11.2-21.7A11.21,11.21,0,0,0,60,29.81Z" style="fill:#2b3547"/><path d="M101.92,93.66,95.65,74.25a5,5,0,0,0-4.76-3.46H86.05a9.46,9.46,0,0,1,0,10h1.2l3,9.4H29.71l3-9.4h9.33a5,5,0,0,0,0-10h-13a5,5,0,0,0-4.76,3.46L18.08,93.66a5,5,0,0,0,4.75,6.53H97.17a5,5,0,0,0,4.75-6.53Z" style="fill:#2b3547"/><circle cx="77.92" cy="75.79" r="4.56" style="fill:#2b3547"/></svg>