<svg xmlns="http://www.w3.org/2000/svg" viewBox="0 0 120 120"><g id="Layer_3" data-name="Layer 3"><path d="M66.63,74.39A6.63,6.63,0,1,0,56,79.68V83.6a4,4,0,0,0,8,0V79.68A6.63,6.63,0,0,0,66.63,74.39Z" style="fill:#2b3547"/><path d="M82,48.16H45V39.61a14.91,14.91,0,0,1,14.75-15,14.71,14.71,0,0,1,13,7.86,9.84,9.84,0,0,1,6.79-2.72,10,10,0,0,1,3.2.54A24.7,24.7,0,0,0,35,39.61v8.84a15.74,15.74,0,0,0-12.7,15.42V87.7A15.73,15.73,0,0,0,38,103.42H82A15.73,15.73,0,0,0,97.72,87.7V63.87A15.72,15.72,0,0,0,82,48.16ZM87.72,87.7A5.72,5.72,0,0,1,82,93.42H38a5.72,5.72,0,0,1-5.71-5.72V63.87A5.71,5.71,0,0,1,38,58.16H82a5.71,5.71,0,0,1,5.71,5.71Z" style="fill:#2b3547"/><circle cx="79.48" cy="39.61" r="4.89" style="fill:#2b3547"/></g></svg>