<svg xmlns="http://www.w3.org/2000/svg" viewBox="0 0 120 120"><g id="Layer_3" data-name="Layer 3"><path d="M103.91,57.17c-.8-.8-19.84-19.5-43.91-19.5s-43.11,18.7-43.91,19.5a4,4,0,0,0,0,5.66c.8.8,19.84,19.51,43.91,19.51s43.11-18.71,43.91-19.51a4,4,0,0,0,0-5.66ZM69.85,61.8A10,10,0,0,1,60,70.11,10.73,10.73,0,0,1,58.3,70a10,10,0,0,1-6.47-4.09,9.85,9.85,0,0,1-1.69-7.46A10,10,0,0,1,60,50.11a10.83,10.83,0,0,1,1.7.14A10,10,0,0,1,69.85,61.8ZM46.6,47.9a18,18,0,0,0,0,24.2A69.45,69.45,0,0,1,25,60,69.51,69.51,0,0,1,46.6,47.9ZM73.4,72.1a18,18,0,0,0,0-24.2A69.45,69.45,0,0,1,95,60,69.51,69.51,0,0,1,73.4,72.1Z" style="fill:#2b3547"/></g></svg>