<svg xmlns="http://www.w3.org/2000/svg" viewBox="0 0 1048.99 1529.87"><g id="Text"><path d="M404.49,298.43c227.39,0,425.7,126.89,527.86,313.57V413.45C932.35,250.8,800.5,119,637.84,119H354.64a32.78,32.78,0,0,0-32.78,32.78v146.7Z" style="fill:#efbbb6"/><path d="M144.68,371.86h259.8A527.87,527.87,0,0,1,932.35,899.73v6.89a30,30,0,0,1-30,30H383.83a269.1,269.1,0,0,1-269.1-269.1V401.81a30,30,0,0,1,30-30Z" style="fill:#f295a0"/><path d="M250.85,1328.61q-14.19,6.9-36.49,6.89-66.51,0-66.5-67.31V1164.38H117v-36.49h30.82v-49.47h48.66v49.47h51.09v36.49H196.52V1269q0,13,6.89,19.67t19.06,6.69a50.66,50.66,0,0,0,28.38-8.52Z" style="fill:#343249"/><path d="M467.39,1333.47H418.32v-33.65q-16.21,35.68-63.26,35.68-31.21,0-48.65-17.84T289,1267V1127.89h48.66v127.73q0,19.47,9.53,29.6t26.15,10.14q21.07,0,33.05-14.19t12-43V1127.89h49.07Z" style="fill:#343249"/><path d="M570.78,1333.47H522.12V1046.79h48.66Z" style="fill:#343249"/><path d="M676.21,1333.47H627.55V1133.8h48.66Z" style="fill:#343249"/><path d="M779.6,1410.92H730.94v-283H779.6v31.63q21.9-34.47,62.85-34.47,40.15,0,63.87,28.79T930,1229.67q0,46.21-23.72,76.43t-64.27,30.21q-41.35,0-62.45-33.65ZM795,1182.23q-15.4,15.81-15.41,47t15,48.26q15,17,36.09,17,21.88,0,35.68-16.83t13.79-47.24q0-30.42-13.79-47.24t-34.87-16.83Q810.42,1166.41,795,1182.23Z" style="fill:#343249"/><path d="M681.07,1073.93a27.42,27.42,0,0,1-8.51,20.48,30,30,0,0,1-41.36,0,27.39,27.39,0,0,1-8.52-20.48,26.92,26.92,0,0,1,8.52-20.08,30,30,0,0,1,41.36,0A27,27,0,0,1,681.07,1073.93Z" style="fill:#343249"/></g></svg>