<?xml version="1.0" encoding="utf-8"?>
<!-- Generator: Adobe Illustrator 24.2.0, SVG Export Plug-In . SVG Version: 6.00 Build 0)  -->
<svg version="1.1" id="Layer_1" xmlns="http://www.w3.org/2000/svg" xmlns:xlink="http://www.w3.org/1999/xlink" x="0px" y="0px"
	 viewBox="0 0 1049 1054.8" style="enable-background:new 0 0 1049 1054.8;" xml:space="preserve">
<style type="text/css">
	.st0{fill:#EFBBB6;}
	.st1{fill:#F295A0;}
</style>
<g id="Text">
	<g>
		
			<image style="overflow:visible;opacity:0.75;" width="869" height="914" xlink:href="3DE4F6CF6D2DEAA0.png"  transform="matrix(1 0 0 1 90 103.8)">
		</image>
		<g>
			<g>
				<g>
					<path class="st0" d="M587,261.2C707.8,382,745.7,554.7,700.8,708.1l105.5-105.5c86.4-86.4,86.4-226.4,0-312.8L655.9,139.4
						c-9.6-9.6-25.2-9.6-34.8,0l-77.9,77.9L587,261.2z"/>
					<path class="st1" d="M410,162.2l138,138c154.8,154.8,154.8,405.9,0,560.7l0,0l-3.7,3.7c-8.8,8.8-23.1,8.8-31.9,0L237.1,589.2
						c-78.9-78.9-78.9-206.9,0-285.8l141.1-141.1C387,153.4,401.3,153.4,410,162.2L410,162.2z"/>
				</g>
			</g>
		</g>
	</g>
</g>
</svg>
